<svg width="413" height="563" viewBox="0 0 413 563" fill="none" xmlns="http://www.w3.org/2000/svg">
<path fill-rule="evenodd" clip-rule="evenodd" d="M1.68311 34.1818C1.18111 34.8288 0.657165 35.5828 0.785165 36.3918C0.952165 37.4418 2.09216 37.9938 3.08216 38.3798C26.0362 47.3258 47.4702 60.1508 66.2042 76.1488C76.4262 62.8188 88.2001 50.6778 101.209 40.0498C97.1151 29.9648 87.8292 23.0038 78.4962 17.4048C68.4462 11.3768 48.9641 -1.89119 37.3092 1.26981C24.4632 4.75381 9.44311 24.1748 1.68311 34.1818Z" fill="white"/>
<path fill-rule="evenodd" clip-rule="evenodd" d="M268.715 509.752C289.087 519.743 332.599 548.581 335.337 546.995C357.788 533.989 391.723 510.838 412.158 494.851C412.158 494.851 380.668 483.538 376.244 481.611C362.875 475.789 351.337 469.995 351.337 469.995C327.878 483.744 294.436 500.693 268.715 509.752Z" fill="#FF919C"/>
<path fill-rule="evenodd" clip-rule="evenodd" d="M84.4922 542.334C122.242 550.029 160.213 556.647 198.341 562.178C209.228 549.981 219.241 537.004 228.277 523.378C225.918 526.938 191.415 520.07 186.527 519.361C171.895 517.24 157.368 514.381 143.027 510.783C130.447 507.627 118.337 505.328 118.337 505.328C107.342 513.703 92.8672 531.422 84.4922 542.334Z" fill="white"/>
</svg>
