<svg width="1125" height="582" viewBox="0 0 1125 582" fill="none" xmlns="http://www.w3.org/2000/svg">
<g clip-path="url(#clip0)">
<path fill-rule="evenodd" clip-rule="evenodd" d="M325.766 578C366.219 581.411 406.937 581.664 447.429 578.755C449.192 578.629 455.025 547.269 455.788 534.467C455.798 534.29 360.086 538.872 353.335 539.328C353.335 539.328 340.07 559.441 325.766 578Z" fill="white"/>
<path fill-rule="evenodd" clip-rule="evenodd" d="M57.3945 546.735C75.2955 555.121 94.3235 561.097 113.805 564.453C120.569 565.619 127.463 566.47 134.29 565.755C141.292 565.019 148.005 562.66 154.69 560.447C180.505 551.9 206.963 545.297 233.767 540.711C229.819 541.385 217.326 532.351 213.13 530.537C205.417 527.202 197.514 524.517 189.586 521.76C178.301 517.837 169.385 514.791 157.339 516.389C123.467 520.884 88.7975 533.722 57.3945 546.735Z" fill="#FF919C"/>
<path fill-rule="evenodd" clip-rule="evenodd" d="M87.4388 373.287C86.4938 374.504 85.5438 375.787 85.2038 377.29C84.7598 379.253 85.4148 381.279 86.0798 383.179C92.6208 401.853 100.964 419.897 110.957 436.976C129.991 409.65 154.652 386.262 182.948 368.702C177.452 356.243 166.46 331.325 166.46 331.325C136.587 324.829 97.4238 360.421 87.4388 373.287Z" fill="white"/>
<path fill-rule="evenodd" clip-rule="evenodd" d="M169.168 223.741C205.253 250.196 256.761 253.677 296.079 232.32C297.59 231.499 299.17 230.556 299.922 229.01C300.581 227.655 300.488 226.072 300.376 224.571C299.233 209.259 297.655 193.98 295.645 178.759C281.731 181.928 267.595 184.126 253.376 185.331C243.95 186.131 234.302 186.393 224.919 184.978C216.096 183.647 201.336 178.661 193.669 175.661C187.648 173.305 174.752 211.122 169.168 223.741Z" fill="white"/>
<path fill-rule="evenodd" clip-rule="evenodd" d="M349.105 94.6477C350.371 94.6567 381.892 65.5107 381.244 64.1167C376.122 53.1107 367.982 43.8507 361.016 33.9097C354.049 23.9677 348.032 12.6107 348.183 0.472656C328.55 0.760656 308.933 2.10466 289.444 4.49366C282.666 5.32566 300.381 48.4377 303.186 52.6957C325.335 86.3287 348.059 94.6407 349.105 94.6477Z" fill="#FF919C"/>
<path fill-rule="evenodd" clip-rule="evenodd" d="M288.896 287.954C288.85 302.44 289.931 316.929 292.126 331.248C292.271 332.188 292.457 333.202 293.153 333.85C293.961 334.602 295.186 334.622 296.29 334.599C326.835 333.942 358.459 332.405 385.736 318.644C386.935 318.039 388.191 317.346 388.821 316.161C389.448 314.984 389.328 313.565 389.19 312.239C388.146 302.131 389.981 282.611 385.233 273.798C380.106 264.283 370.624 271.411 360.007 274.126C353.586 275.768 288.896 288.092 288.896 287.954Z" fill="#FF919C"/>
<path fill-rule="evenodd" clip-rule="evenodd" d="M39.3203 87.1492C55.3353 80.0322 73.9403 83.6262 90.7513 88.5782C111.275 94.6242 132.101 103.104 146.089 119.295C155.207 103.649 162.331 86.8432 167.233 69.4102C167.668 67.8642 168.079 66.1782 167.474 64.6902C166.872 63.2072 165.409 62.2872 164.026 61.4822C141.161 48.1892 110.302 34.7562 83.2323 35.1022C57.8353 35.4272 46.9703 67.2872 39.3203 87.1492Z" fill="white"/>
<mask id="mask0" style="mask-type:alpha" maskUnits="userSpaceOnUse" x="0" y="71" width="135" height="106">
<path d="M0.335938 71.6812H134.462V176.938H0.335938V71.6812Z" fill="white"/>
</mask>
<g mask="url(#mask0)">
<path fill-rule="evenodd" clip-rule="evenodd" d="M83.789 71.6812C100.679 84.2962 117.57 96.9112 134.46 109.527C108.789 140.947 77.005 171.837 36.754 176.938C27.648 166.171 5.181 142.17 0 128.994C0 128.994 16.262 127.247 25.76 120.966C61 97.6612 83.789 71.6812 83.789 71.6812Z" fill="#FF919C"/>
</g>
</g>
<g clip-path="url(#clip1)">
<path fill-rule="evenodd" clip-rule="evenodd" d="M257.002 538.541C257.016 540.503 257.229 542.715 258.751 543.957C259.953 544.935 261.627 545.016 263.175 545.052C281.087 545.475 298.998 545.897 316.909 546.319C318.477 546.356 320.214 546.334 321.373 545.277C321.963 544.739 322.322 543.991 322.566 543.232C324.518 537.159 319.58 530.76 313.75 528.159C307.921 525.557 301.322 525.486 295.087 524.111C294.339 523.944 293.542 523.73 293.043 523.148C292.14 522.094 292.658 520.487 293.235 519.225C295.01 515.349 296.964 511.555 299.091 507.862C292.087 503.545 285.083 499.231 278.079 494.916C276.787 494.12 275.402 493.298 273.884 493.329C268.446 493.443 262.79 509.569 261.273 513.775C258.419 521.698 256.942 530.118 257.002 538.541Z" fill="#A1C0E5"/>
<path fill-rule="evenodd" clip-rule="evenodd" d="M471.059 535.27C479.256 527.605 498.721 508.778 509.065 497.579C513.16 493.145 510.369 485.961 504.322 485.417C502.555 485.258 500.762 485.314 499.022 485.567C493.232 486.411 487.913 489.182 482.985 492.307C480.396 493.95 477.83 495.725 474.897 496.643C471.962 497.559 468.516 497.483 466.082 495.622C464.111 494.115 463.045 491.658 461.032 490.211C457.721 494.696 437.939 504.778 442.75 510.558C444.453 512.604 469.568 536.663 471.059 535.27Z" fill="#8FB5DB"/>
<path fill-rule="evenodd" clip-rule="evenodd" d="M348.029 423.247C364.318 441.179 380.843 451.779 398.167 468.7C407.744 478.053 443.609 514.407 444.271 514.328C444.762 514.271 460.396 505.207 466 489.939C452.928 469.417 435.85 452.23 420.925 434.342C413.425 425.352 387.632 390.427 383.588 386.383C381.915 384.71 346.843 421.942 348.029 423.247Z" fill="#01164C"/>
<path fill-rule="evenodd" clip-rule="evenodd" d="M264.055 496.317C268.14 508.617 285.818 516.049 298.733 516.328C314.548 502.533 337.148 482.853 348.131 460.215C361.468 432.721 370.519 406.423 378 380.328C366.244 381.327 354.487 382.326 342.729 383.328C332.774 384.175 330.729 381.371 325.633 389.603C325.633 389.603 317.665 423.869 309.806 441.322C299.174 464.929 262.388 491.296 264.055 496.317Z" fill="#011B9A"/>
<path fill-rule="evenodd" clip-rule="evenodd" d="M377.713 275.541C378.589 276.472 379.496 277.425 380.665 277.947C382.853 278.924 385.375 278.187 387.731 277.739C388.817 277.533 390.011 277.432 391.119 277.573C393.053 277.818 393.683 280.28 392.115 281.433C389.862 283.088 387.024 283.967 384.223 283.789C384.325 285.642 384.105 287.51 383.575 289.29C379.014 290.098 377.887 287.315 373.961 286.407C370.331 285.57 370.82 290.835 372.346 292.368C375.177 295.211 375.269 295.998 380.476 297.269C378.649 301.354 368.236 306.86 368.236 306.86C368.236 306.86 366.593 319.601 365.262 324.328C358.699 323.495 352.228 321.948 346 319.724C348.05 314.565 349.69 309.247 350.903 303.833C351.509 301.132 351.986 298.203 350.836 295.682C350.234 294.36 349.228 293.266 348.465 292.029C345.488 287.202 346.952 280.184 351.615 276.928C352.856 276.062 354.261 275.452 355.53 274.626C357.804 273.143 359.575 271.012 361.748 269.385C369.041 263.924 372.975 270.508 377.713 275.541Z" fill="#E53D1C"/>
<path fill-rule="evenodd" clip-rule="evenodd" d="M366.104 324.15C372.404 337.101 377.526 350.622 381.387 364.494C383.557 372.293 385.329 380.198 386.892 388.14C386.99 388.643 387.084 389.182 386.874 389.65C386.644 390.165 386.105 390.458 385.6 390.711C374.178 396.46 361.886 400.831 349.137 401.826C340.16 402.528 299.961 404.988 299 386.281C298.954 385.352 304.266 374.288 309.005 367.087C315.881 356.638 323.086 346.405 330.606 336.408C335.149 330.369 342.09 321.94 348.147 317.328C348.147 317.328 351.32 320.414 354.448 321.645C360.389 323.984 362.174 323.592 366.104 324.15Z" fill="#8FB5DB"/>
<path fill-rule="evenodd" clip-rule="evenodd" d="M352.491 352.111C351.667 359.754 350.842 367.396 350.019 375.038C349.987 375.334 349.971 375.675 350.188 375.881C350.334 376.017 350.545 376.055 350.744 376.086C357.704 377.166 364.777 377.544 371.814 377.211C372.293 377.187 372.821 377.14 373.151 376.8C373.37 376.572 373.46 376.256 373.536 375.951C374.537 371.976 374.688 367.849 374.837 363.756C375.012 358.908 375.108 348.109 374.797 348.046C368.681 346.831 359.788 345.438 353.536 345.328C353.408 347.564 352.736 349.845 352.491 352.111Z" fill="white"/>
<path fill-rule="evenodd" clip-rule="evenodd" d="M329 382.087C336.656 385.041 356.478 390.975 356.78 390.27C361.441 379.419 364.846 365.364 368 354.881C359.69 352.352 348.427 348.859 340.112 346.328L329 382.087Z" fill="#FF919C"/>
<path fill-rule="evenodd" clip-rule="evenodd" d="M405.962 382.086C405.753 383.353 405.193 384.626 404.129 385.396C402.95 386.252 401.37 386.357 399.895 386.323C392.329 386.142 384.992 383.176 377.43 383.478C377.235 383.484 373.017 370.394 376.16 370.344C404.885 369.874 406.306 380.001 405.962 382.086Z" fill="#EA9D12"/>
<path fill-rule="evenodd" clip-rule="evenodd" d="M306.027 378.462C298.363 382.309 297.938 385.924 298.006 391.325C298.074 396.726 300.925 402.018 305.392 405.03C311.731 409.305 320.104 408.738 327.575 407.149C337.896 404.953 347.798 401.147 357.649 397.356C363.833 394.978 373.953 391.18 379.61 387.72C381.198 386.748 381.945 370.585 378.96 367.618C376.896 365.567 313.014 374.953 306.027 378.462Z" fill="#A1C0E5"/>
<path fill-rule="evenodd" clip-rule="evenodd" d="M364.637 277.059C362.552 279.451 360.483 283.666 359.969 283.523C358.632 283.149 355.569 281.278 353.04 282.919C351.876 283.675 351.409 286.932 352.158 288.101C353.594 290.346 357.275 290.884 357.275 290.884C359.134 295.066 360.58 301.024 362.135 305.328C350.765 304.277 339.748 299.683 331 292.344C334.929 286.247 339.531 280.584 344.698 275.493C348.308 271.936 352.345 268.571 357.197 267.107C360.358 266.152 371.191 265.119 372 270.326C372 270.326 367.69 273.557 364.637 277.059Z" fill="#011B9A"/>
<path fill-rule="evenodd" clip-rule="evenodd" d="M369.499 279.058C368.695 279.548 367.935 280.384 368.004 281.37C368.016 281.544 368.056 281.719 368.146 281.864C368.364 282.216 368.805 282.307 369.2 282.323C370.328 282.37 371.44 282.066 372.533 281.762C372.843 281.678 373.164 281.584 373.409 281.364C373.566 281.223 373.681 281.036 373.774 280.84C373.997 280.364 374.086 279.789 373.898 279.296C373.278 277.681 370.515 278.438 369.499 279.058Z" fill="white"/>
<path fill-rule="evenodd" clip-rule="evenodd" d="M374.56 278.767C375.147 279.353 375.147 280.302 374.56 280.889C373.975 281.475 373.025 281.475 372.44 280.889C371.853 280.302 371.853 279.353 372.44 278.767C373.025 278.182 373.975 278.182 374.56 278.767Z" fill="black"/>
</g>
<defs>
<clipPath id="clip0">
<rect width="1125" height="581" fill="white" transform="translate(0 0.328125)"/>
</clipPath>
<clipPath id="clip1">
<rect width="254" height="280" fill="white" transform="translate(257 266.328)"/>
</clipPath>
</defs>
</svg>
