<svg width="83" height="53" viewBox="0 0 83 53" fill="none" xmlns="http://www.w3.org/2000/svg">
<path d="M80.1978 24.6055C80.1033 23.2759 80.4905 23.8049 80.1978 24.6055C79.8106 24.0765 79.8106 24.0765 79.8106 24.0765C79.8106 24.0765 79.8106 24.0765 79.4234 23.5476C79.0363 23.0186 79.0363 23.0186 79.0363 23.0186C79.0363 23.0186 79.0363 23.0186 78.6491 22.4897L77.8748 21.4318C77.8748 21.4318 77.4876 20.9028 77.7803 20.1023L78.0731 19.3017C77.006 19.0444 77.006 19.0444 76.6188 18.5154C75.9389 18.787 75.9389 18.787 76.6188 18.5154L77.006 19.0444C77.006 19.0444 77.006 19.0444 76.7133 19.8449L77.006 19.0444C77.006 19.0444 77.006 19.0444 76.7133 19.8449C76.4205 20.6455 76.4205 20.6455 76.4205 20.6455L76.8077 21.1744C76.8077 21.1744 76.8077 21.1744 77.1949 21.7034C77.8748 21.4318 78.2619 21.9607 77.582 22.2323C77.1949 21.7034 76.9021 22.5039 77.2893 23.0329C77.2893 23.0329 77.2893 23.0329 77.6765 23.5618L78.0636 24.0908C77.6765 23.5618 77.3837 24.3624 77.7709 24.8913L78.1581 25.4203C78.1581 25.4203 78.1581 25.4203 77.8653 26.2209C77.5726 27.0214 77.2799 27.822 77.2799 27.822C77.2799 27.822 77.2799 27.822 76.9871 28.6225L76.6944 29.4231C76.1089 31.0242 76.1089 31.0242 75.7218 30.4953C75.7218 30.4953 75.7218 30.4953 75.429 31.2958C75.1363 32.0964 70.9531 37.1856 70.5659 36.6567C69.886 36.9283 68.9134 38.0005 68.9134 38.0005C68.9134 38.0005 68.5262 37.4715 67.5536 38.5437C66.8737 38.8153 66.581 39.6159 66.1938 39.0869C66.1938 39.0869 65.5139 39.3585 64.834 39.6301C62.1144 40.7166 58.4222 42.8752 54.6355 43.7043C53.9556 43.976 52.5958 44.5192 52.2087 43.9902C51.5288 44.2618 51.5288 44.2618 51.5288 44.2618C51.5288 44.2618 50.8489 44.5335 50.169 44.8051C48.2237 46.9494 47.5438 47.221 47.1567 46.6921C47.1567 46.6921 46.7695 46.1631 46.4768 46.9637C46.4768 46.9637 45.7969 47.2353 45.4097 46.7064C45.117 47.5069 44.7298 46.978 44.4371 47.7785C44.4371 47.7785 44.0499 47.2496 43.7572 48.0501C43.7572 48.0501 43.4644 48.8507 43.0773 48.3218C43.0773 48.3218 42.0102 48.0644 41.3303 48.336C40.9431 47.8071 38.5163 48.093 36.0894 48.3789C33.6626 48.6648 32.5955 48.4074 32.3028 49.208L30.8486 48.4217C30.8486 48.4217 30.8485 48.4217 30.1687 48.6933C29.7815 48.1644 29.4888 48.9649 29.4888 48.9649C29.4888 48.9649 29.4888 48.9649 29.1016 48.436L28.7144 47.907C28.7144 47.907 28.7144 47.907 28.3273 47.3781C28.3273 47.3781 27.9401 46.8492 27.2602 47.1208C26.9675 47.9213 25.9004 47.664 24.1534 47.6783L23.4735 47.9499C23.4735 47.9499 22.6992 46.892 22.0193 47.1636C18.1382 46.6632 10.5743 43.5324 9.41285 41.9455L9.02568 41.4166C9.02568 41.4166 8.63852 40.8876 7.86418 39.8297C7.47702 39.3008 6.40996 39.0435 6.40996 39.0435C6.02279 38.5145 6.02279 38.5145 5.34289 38.7861L4.95572 38.2572C4.95572 38.2572 4.56856 37.7282 4.18139 37.1993C3.79423 36.6703 3.01989 35.6124 2.24556 34.5546C1.47123 33.4967 1.08406 32.9677 1.08406 32.9677C1.08406 32.9677 0.800761 28.9792 0.413595 28.4502C0.706327 27.6497 0.706327 27.6497 0.413595 28.4502C0.706327 27.6497 1.29179 26.0486 0.904624 25.5196C0.517458 24.9907 0.517458 24.9907 0.904624 25.5196L1.29179 26.0486C1.29179 26.0486 1.29179 26.0486 1.97169 25.777C2.26442 24.9764 2.26442 24.9764 2.26442 24.9764C2.26442 24.9764 2.26442 24.9764 2.55715 24.1758C2.84988 23.3753 2.84988 23.3753 2.84988 23.3753C2.84988 23.3753 2.75545 22.0458 3.04818 21.2452C3.34091 20.4447 3.34091 20.4447 3.34091 20.4447L3.04818 21.2452C2.75545 22.0458 2.75545 22.0458 3.72808 20.9736C4.7007 19.9014 4.99343 19.1009 4.7007 19.9014C4.7007 19.9014 4.7007 19.9014 4.31354 19.3725C3.92637 18.8435 3.92637 18.8435 3.92637 18.8435C3.92637 18.8435 3.92637 18.8435 3.63364 19.6441C3.63364 19.6441 2.95374 19.9157 2.36828 21.5168L1.49009 23.9185C1.49009 23.9185 0.0264295 27.9213 0.413595 28.4502L0.120863 29.2508C-0.171868 30.0514 0.111436 34.0399 0.498602 34.5688C0.885768 35.0978 0.885767 35.0978 0.593036 35.8983C0.687471 37.2278 3.49207 42.26 5.72063 44.1041C6.1078 44.6331 6.49496 45.162 6.88213 45.691C7.46759 44.0899 7.85476 44.6188 7.85476 44.6188C7.85476 44.6188 10.4705 46.9919 11.1504 46.7203C11.1504 46.7203 11.8303 46.4487 12.2174 46.9777C12.9918 48.0356 16.5801 49.3365 19.7813 50.1085C21.2356 50.8948 22.5953 50.3516 22.5953 50.3516C22.5953 50.3516 22.5953 50.3516 22.9825 50.8805L23.3697 51.4095C23.3697 51.4095 23.3697 51.4095 23.7568 51.9384C23.7568 51.9384 27.6379 52.4388 29.3849 52.4245C29.2905 51.095 29.9704 50.8234 29.9704 50.8234C30.3575 51.3523 32.1045 51.3381 32.3972 50.5375C32.3972 50.5375 38.0253 51.0236 39.3851 50.4804L40.065 50.2088C40.065 50.2088 41.132 50.4661 41.8119 50.1945C44.2388 49.9086 44.2388 49.9086 44.9187 49.637C45.5986 49.3654 45.5986 49.3654 45.5986 49.3654C45.5986 49.3654 45.9857 49.8943 46.2785 49.0938C46.2785 49.0938 47.3455 49.3511 47.6383 48.5505C47.931 47.75 48.7053 48.8079 48.9981 48.0073C48.9981 48.0073 49.678 47.7357 50.3578 47.4641C55.306 48.2218 62.105 45.5057 62.3977 44.7051C62.6904 43.9046 62.6904 43.9046 62.3977 44.7051C62.3977 44.7051 62.3977 44.7051 62.7849 45.2341C62.7849 45.2341 63.7575 44.1619 64.1447 44.6908C64.8246 44.4192 65.1173 43.6187 65.1173 43.6187C65.1173 43.6187 65.5045 44.1476 65.7972 43.347C66.4771 43.0754 68.1296 41.7317 68.1296 41.7317L68.4223 40.9311C68.4223 40.9311 68.7151 40.1305 69.1022 40.6595C69.4894 41.1884 71.4347 39.0441 73.0872 37.7003C75.0324 35.556 76.2978 33.6832 77.176 31.2815C78.0542 28.8799 78.3469 28.0793 77.9598 27.5504L78.2525 26.7498C78.5452 25.9492 78.1581 25.4203 77.8653 26.2209C78.1581 25.4203 78.1581 25.4203 78.5452 25.9492C78.9324 26.4782 78.9324 26.4782 78.9324 26.4782C78.9324 26.4782 78.9324 26.4782 79.3196 27.0071C79.7067 27.5361 79.7067 27.5361 79.9995 26.7355C79.905 25.406 80.1978 24.6055 80.1978 24.6055ZM1.98111 20.9879C2.66101 20.7163 2.66101 20.7163 1.98111 20.9879C2.36828 21.5168 2.36828 21.5168 1.98111 20.9879ZM1.39565 22.589C1.78282 23.1179 1.78282 23.1179 1.39565 22.589V22.589ZM7.66589 41.9598C8.05305 42.4888 8.05305 42.4888 7.66589 41.9598V41.9598ZM12.123 45.6482C11.4431 45.9198 11.4431 45.9198 12.123 45.6482V45.6482ZM66.3827 41.7459C65.9955 41.217 65.9955 41.217 66.3827 41.7459V41.7459ZM74.8719 18.5297C75.1646 17.7291 75.1646 17.7292 75.8445 17.4575C75.8445 17.4575 76.2317 17.9865 76.5244 17.1859C76.8171 16.3854 76.8171 16.3854 76.5244 17.1859C76.5244 17.1859 76.2317 17.9865 76.6188 18.5154C76.6188 18.5154 76.6188 18.5154 76.3261 19.316L76.0334 20.1165C76.0334 20.1165 75.6462 19.5876 75.9389 18.787C75.259 19.0587 75.259 19.0587 74.8719 18.5297C74.5791 19.3303 74.5791 19.3303 74.8719 18.5297C74.5791 19.3303 74.9663 19.8592 74.8719 18.5297C74.9663 19.8592 74.9663 19.8592 74.5791 19.3303L74.2864 20.1308C73.6065 20.4024 73.8992 19.6019 74.8719 18.5297ZM80.9721 25.6633C80.2922 25.935 80.5849 25.1344 80.9721 25.6633C79.9995 26.7355 80.6794 26.4639 80.9721 25.6633C80.2922 25.935 80.2922 25.935 80.9721 25.6633C80.5849 25.1344 80.5849 25.1344 80.9721 25.6633ZM72.5489 15.356C72.1617 14.8271 72.1617 14.8271 72.5489 15.356C72.8416 14.5555 72.8416 14.5555 72.5489 15.356ZM81.8409 28.0507C81.5481 28.8513 81.5481 28.8513 81.8409 28.0507C81.4537 27.5218 81.0665 26.9929 81.0665 26.9929C81.0665 26.9929 81.0665 26.9929 80.6794 26.4639C80.6794 26.4639 80.6794 26.4639 80.9721 25.6633C81.0665 26.9929 81.8409 28.0507 81.8409 28.0507ZM82.7096 30.4381C82.3225 29.9092 82.3224 29.9092 82.6152 29.1086C82.9079 28.3081 82.9079 28.3081 82.9079 28.3081C83.0023 29.6376 83.0023 29.6376 82.7096 30.4381C82.3225 29.9092 82.3225 29.9092 82.7096 30.4381C83.0968 30.9671 83.0968 30.9671 82.7096 30.4381ZM63.7291 9.30884C63.7291 9.30884 64.1162 9.83778 64.5034 10.3667C64.8906 10.8957 65.5704 10.6241 65.5704 10.6241C65.9576 11.153 65.9576 11.153 65.9576 11.153C65.9576 11.153 65.9576 11.153 66.3448 11.682C66.732 12.2109 67.799 12.4682 67.7046 11.1387L68.0917 11.6677C68.4789 12.1966 68.4789 12.1966 68.4789 12.1966L68.8661 12.7256C68.5733 13.5261 69.2532 13.2545 69.546 12.454C69.8387 11.6534 69.4515 11.1245 68.7716 11.3961L68.0917 11.6677C68.0917 11.6677 67.7046 11.1387 67.3174 10.6098C66.9302 10.0808 66.9303 10.0808 66.9303 10.0808C66.9303 10.0808 66.5431 9.55189 65.8632 9.8235C65.476 9.29456 65.0889 8.76561 65.0889 8.76561C65.0889 8.76561 65.0889 8.76561 64.7017 8.23667L64.3145 7.70772L64.0218 8.50828C64.3145 7.70772 63.9274 7.17877 63.6346 7.97933C63.6346 7.97933 63.6346 7.97933 63.2475 7.45039C62.8603 6.92144 62.8603 6.92144 62.5676 7.722C62.5676 7.722 62.5676 7.722 62.1804 7.19305L61.7932 6.6641C63.2475 7.45038 63.3419 8.77989 63.7291 9.30884ZM64.7961 9.56617C64.5034 10.3667 64.8906 10.8957 64.7961 9.56617C64.5034 10.3667 64.5034 10.3667 64.7961 9.56617ZM71.4818 15.0987L71.869 15.6276C71.869 15.6276 71.869 15.6276 71.4818 15.0987ZM70.7075 14.0408C70.4147 14.8414 70.4147 14.8414 70.7075 14.0408V14.0408ZM73.1249 18.544C73.4176 17.7434 73.4176 17.7434 73.1249 18.544C74.192 18.8013 73.8992 19.6019 73.8992 19.6019L73.6065 20.4024C73.8048 18.2724 73.8048 18.2724 73.1249 18.544ZM68.8661 12.7256C68.1862 12.9972 68.5733 13.5261 68.8661 12.7256V12.7256ZM70.698 18.8299C71.3779 18.5583 71.7651 19.0872 71.7651 19.0872C71.0852 19.3588 70.698 18.8299 70.698 18.8299ZM14.1343 9.98026C13.8415 10.7808 13.8415 10.7808 13.8415 10.7808C13.8415 10.7808 15.2013 10.2376 15.4941 9.43703C15.4941 9.43703 15.8812 9.96598 16.174 9.16542C16.5611 9.69437 16.8538 8.89381 17.241 9.42276L17.5337 8.6222C17.9209 9.15114 18.8935 8.07897 18.8935 8.07897C19.1863 7.27841 19.1863 7.27841 18.8935 8.07897C18.6008 8.87953 19.2807 8.60792 19.9606 8.33631C20.6405 8.06469 21.3204 7.79308 21.3204 7.79308C21.3204 7.79308 22.3875 8.05042 23.3601 6.97824C24.3327 5.90607 25.6925 5.36284 26.3724 5.09123C29.4792 4.53373 29.7719 3.73317 29.7719 3.73317L30.0646 2.93261L30.4518 3.46156C30.1591 4.26212 30.839 3.9905 32.1988 3.44727L32.5859 3.97622C32.5859 3.97622 32.5859 3.97622 33.2658 3.70461C33.2658 3.70461 33.9457 3.433 34.6256 3.16138C35.3055 2.88977 35.9854 2.61816 35.9854 2.61816C35.9854 2.61816 36.2781 1.8176 36.3726 3.1471C36.3726 3.1471 37.8268 3.93338 38.1195 3.13282C38.1195 3.13282 38.5067 3.66177 39.1866 3.39016C39.5738 3.91911 40.2537 3.64749 40.2537 3.64749C40.2537 3.64749 40.2537 3.64749 40.5464 2.84693C40.5464 2.84693 40.8391 2.04637 41.2263 2.57532C41.6135 3.10427 42.2934 2.83266 42.5861 2.0321C42.9733 2.56104 43.6532 2.28943 43.6532 2.28943C43.6532 2.28943 43.9459 1.48887 44.0403 2.81838C44.0403 2.81838 44.0403 2.81838 44.4275 3.34732L44.8147 3.87627C44.8147 3.87627 44.8147 3.87627 45.4945 3.60466C45.4945 3.60466 45.8817 4.1336 45.7873 2.8041C45.7873 2.8041 45.7873 2.8041 46.1744 3.33304C46.5616 3.86199 46.5616 3.86199 46.5616 3.86199C46.5616 3.86199 46.8543 3.06143 47.2415 3.59038L47.6287 4.11932C48.0158 4.64827 48.0158 4.64827 48.6957 4.37666C48.6957 4.37666 49.3756 4.10505 48.9885 3.5761C49.3756 4.10505 49.7628 4.63399 50.0555 3.83343C50.4427 4.36238 51.5098 4.61971 51.5098 4.61971C51.5098 4.61971 52.1897 4.3481 52.964 5.40599C53.3512 5.93494 54.4182 6.19227 54.4182 6.19227C54.4182 6.19227 54.4182 6.19227 54.8054 6.72122C54.8054 6.72122 55.1926 7.25017 55.8724 6.97855C56.2596 7.5075 56.9395 7.23589 56.9395 7.23589C56.9395 7.23589 57.6194 6.96427 58.0066 7.49322C59.0736 7.75055 60.1407 8.00789 60.1407 8.00789C60.5279 8.53684 60.5279 8.53683 60.5279 8.53683L60.915 9.06578C60.6223 9.86634 61.0095 10.3953 61.3022 9.59473C61.3022 9.59473 61.3022 9.59473 61.6894 10.1237L62.7564 10.381L61.5949 8.79417C61.2078 8.26522 60.915 9.06578 61.2078 8.26522C61.2078 8.26522 61.2078 8.26522 60.8206 7.73627L59.2719 5.62049C59.2719 5.62049 59.2719 5.62049 58.8848 5.09154C58.4976 4.56259 58.4976 4.5626 58.2049 5.36316L57.8177 4.83421C57.8177 4.83421 57.0434 3.77631 56.3635 4.04793C55.6836 4.31954 55.2964 3.7906 54.9092 3.26165C54.9092 3.26165 54.5221 2.7327 54.2294 3.53326L53.5495 3.80488C53.5495 3.80488 53.1623 3.27593 52.4824 3.54754C52.0952 3.01859 51.8025 3.81915 51.4153 3.29021C51.0282 2.76126 51.0282 2.76126 50.7354 3.56182L50.4427 4.36238C50.4427 4.36238 50.7354 3.56182 50.0555 3.83343C49.6684 3.30449 48.6013 3.04715 48.3086 3.84771L47.9214 3.31877C47.9214 3.31877 47.5342 2.78982 47.2415 3.59038C46.8543 3.06143 46.4672 2.53248 46.1744 3.33304C46.1744 3.33304 46.1744 3.33304 45.8817 4.1336C45.4945 3.60466 45.4945 3.60466 45.8817 4.1336C46.5616 3.86199 46.1744 3.33304 45.1074 3.07571C45.0129 1.7462 44.6258 1.21726 44.6258 1.21726C44.6258 1.21726 43.9459 1.48887 43.5587 0.959923C43.1716 0.430976 42.8788 1.23154 42.8788 1.23154C42.8788 1.23154 42.4917 0.70259 42.1989 1.50315C42.1989 1.50315 41.519 1.77476 41.1319 1.24581C40.7447 0.716867 40.452 1.51743 40.452 1.51743C40.452 1.51743 40.0648 0.988481 39.7721 1.78904L39.3849 1.26009C39.3849 1.26009 39.3849 1.26009 38.705 1.53171C38.3178 1.00276 38.3178 1.00276 38.0251 1.80332C37.7324 2.60388 37.7324 2.60388 37.3452 2.07493C36.5709 1.01704 36.5709 1.01704 35.891 1.28865C35.5982 2.08921 35.5982 2.08921 35.5038 0.759704C35.5038 0.759704 35.1166 0.230758 34.4367 0.502371C33.7569 0.773983 33.4641 1.57454 33.4641 1.57454C33.4641 1.57454 33.4641 1.57454 33.1714 2.3751L32.7842 1.84615C32.7842 1.84615 31.0373 1.86044 30.3574 2.13205C30.3574 2.13205 29.6775 2.40366 30.0646 2.93261C30.0646 2.93261 28.6104 2.14633 28.3177 2.94689C28.0249 3.74745 27.345 4.01906 26.9579 3.49011C26.9579 3.49011 26.5707 2.96117 26.278 3.76173L25.5981 4.03334C25.5981 4.03334 25.2109 3.50439 24.9182 4.30495C24.8238 2.97544 23.8511 4.04762 23.1712 4.31923C22.1042 4.0619 21.4243 4.33351 21.4243 4.33351C21.4243 4.33351 20.7444 4.60512 20.3572 4.07617C19.0918 5.94891 18.7047 5.41996 19.0918 5.94891L18.7047 5.41996L18.4119 6.22052C18.0248 5.69157 17.3449 5.96318 17.3449 5.96318C16.9577 5.43424 15.9851 6.50641 15.6924 7.30697L15.3996 8.10753C14.0398 8.65075 14.0398 8.65076 14.1343 9.98026ZM62.662 9.0515C62.5676 7.722 62.5676 7.722 62.662 9.0515V9.0515ZM45.4001 2.27515C45.4945 3.60466 45.4945 3.60466 45.4001 2.27515C45.1074 3.07571 45.1074 3.07571 45.4001 2.27515ZM41.6135 3.10427C42.2934 2.83266 41.9062 2.30371 41.6135 3.10427V3.10427ZM35.9854 2.61816C36.3726 3.1471 36.3726 3.1471 35.9854 2.61816V2.61816ZM69.5366 17.243C69.9237 17.772 69.9237 17.772 69.9237 17.772C69.9237 17.772 69.9237 17.772 69.631 18.5725C70.0182 19.1015 70.0182 19.1015 69.3383 19.3731C68.6584 19.6447 68.2712 19.1158 68.9511 18.8442C69.2438 18.0436 69.5366 17.243 69.5366 17.243C69.1494 16.7141 69.1494 16.7141 69.5366 17.243ZM68.8566 17.5147C69.2438 18.0436 69.2438 18.0436 68.8566 17.5147C68.5639 18.3152 68.9511 18.8442 68.8566 17.5147ZM37.2508 0.745426C37.6379 1.27437 37.6379 1.27437 37.2508 0.745426C37.3452 2.07493 37.3452 2.07493 37.2508 0.745426C36.958 1.54599 36.958 1.54599 37.2508 0.745426ZM7.04256 13.4969C7.42972 14.0259 7.72245 13.2253 7.72245 13.2253C7.72245 13.2253 7.72245 13.2253 8.40235 12.9537C8.78952 13.4827 9.08225 12.6821 9.37498 11.8816C9.37498 11.8816 9.37498 11.8815 9.76215 12.4105C10.442 12.1389 10.442 12.1389 10.442 12.1389C10.7348 11.3383 10.7348 11.3383 10.0549 11.6099C10.0549 11.6099 10.3476 10.8094 10.7348 11.3383C10.7348 11.3383 10.7348 11.3383 11.4147 11.0667C11.4147 11.0667 11.8018 11.5957 12.0946 10.7951C12.0946 10.7951 12.7745 10.5235 13.4544 10.2519C13.8415 10.7808 13.8415 10.7808 14.1343 9.98026C14.427 9.1797 14.427 9.1797 14.1343 9.98026C14.2287 11.3098 14.2287 11.3098 13.5488 11.5814L12.8689 11.853C12.8689 11.853 12.8689 11.853 12.4817 11.324C12.4817 11.324 12.0946 10.7951 12.189 12.1246C11.8963 12.9252 11.8963 12.9252 11.8018 11.5957C11.4147 11.0667 11.4147 11.0667 11.4147 11.0667C11.0275 10.5378 10.7348 11.3383 10.7348 11.3383L10.442 12.1389L10.1493 12.9394C9.85658 13.74 9.85658 13.74 9.85658 13.74C10.1493 12.9394 10.1493 12.9394 9.46941 13.2111C8.78952 13.4827 8.78952 13.4827 9.17668 14.0116C9.17668 14.0116 9.17668 14.0116 8.78952 13.4827C8.88395 14.8122 8.59122 15.6127 8.20405 15.0838C8.20405 15.0838 7.91132 15.8843 7.52416 15.3554C7.52416 15.3554 7.81689 14.5548 7.04256 13.4969ZM11.5091 12.3962C11.2164 13.1968 11.2164 13.1968 11.5091 12.3962V12.3962ZM5.77719 15.3697C6.16436 15.8986 6.16436 15.8986 5.77719 15.3697C6.06993 14.5691 6.06993 14.5691 6.06993 14.5691C6.74982 14.2975 6.74982 14.2975 6.45709 15.0981C6.55153 16.4276 5.48446 16.1702 5.77719 15.3697ZM4.51183 17.2424C4.80456 16.4419 4.80456 16.4419 4.51183 17.2424C4.899 17.7714 4.899 17.7714 4.899 17.7714C4.899 17.7714 4.899 17.7714 5.28617 18.3003C5.28617 18.3003 5.28617 18.3003 4.99344 19.1009C4.99344 19.1009 4.2191 18.043 4.51183 17.2424Z" fill="#007AFF"/>
</svg>
