<svg width="20" height="20" viewBox="0 0 20 20" fill="none" xmlns="http://www.w3.org/2000/svg">
<path d="M5.83335 3.33335V16.6667H14.1667V3.33335H5.83335ZM5.00002 1.66669H15C15.221 1.66669 15.433 1.75448 15.5893 1.91076C15.7456 2.06704 15.8334 2.27901 15.8334 2.50002V17.5C15.8334 17.721 15.7456 17.933 15.5893 18.0893C15.433 18.2456 15.221 18.3334 15 18.3334H5.00002C4.77901 18.3334 4.56705 18.2456 4.41076 18.0893C4.25448 17.933 4.16669 17.721 4.16669 17.5V2.50002C4.16669 2.27901 4.25448 2.06704 4.41076 1.91076C4.56705 1.75448 4.77901 1.66669 5.00002 1.66669ZM10 14.1667C10.221 14.1667 10.433 14.2545 10.5893 14.4108C10.7456 14.567 10.8334 14.779 10.8334 15C10.8334 15.221 10.7456 15.433 10.5893 15.5893C10.433 15.7456 10.221 15.8334 10 15.8334C9.77901 15.8334 9.56705 15.7456 9.41077 15.5893C9.25449 15.433 9.16669 15.221 9.16669 15C9.16669 14.779 9.25449 14.567 9.41077 14.4108C9.56705 14.2545 9.77901 14.1667 10 14.1667Z" fill="#111111"/>
</svg>
