<svg width="108" height="45" viewBox="0 0 108 45" fill="none" xmlns="http://www.w3.org/2000/svg">
<path d="M5.424 24.271L5.448 24.199C5.448 24.039 5.312 23.951 5.04 23.935C4.704 23.727 4.344 23.375 3.96 22.879C3.576 22.367 3.336 21.975 3.24 21.703C3.192 21.575 3.168 21.487 3.168 21.439C3.168 21.359 3.2 21.303 3.264 21.271C3.328 21.223 3.408 21.183 3.504 21.151C3.6 21.103 3.672 21.071 3.72 21.055C4.008 20.863 4.224 20.767 4.368 20.767C4.528 20.767 4.664 20.871 4.776 21.079C5 21.479 5.36 21.815 5.856 22.087C6.352 22.343 6.904 22.471 7.512 22.471C8.056 22.471 8.544 22.375 8.976 22.183C9.392 21.991 9.6 21.711 9.6 21.343C9.6 21.071 9.48 20.743 9.24 20.359C9.208 20.263 9.152 20.175 9.072 20.095C8.992 20.015 8.896 19.935 8.784 19.855C8.528 19.663 8.248 19.415 7.944 19.111C7.688 19.015 7.424 18.887 7.152 18.727L6.648 18.487C6.248 18.295 5.8 17.991 5.304 17.575C4.808 17.143 4.464 16.743 4.272 16.375C3.92 16.039 3.744 15.527 3.744 14.839C3.744 14.087 3.92 13.383 4.272 12.727C4.464 12.295 4.928 11.631 5.664 10.735C6.4 9.83902 6.944 9.27902 7.296 9.05502L7.92 8.45502C7.936 8.39102 7.96 8.35902 7.992 8.35902C8.024 8.34302 8.048 8.33502 8.064 8.33502C8.112 8.30302 8.28 8.23102 8.568 8.11902C8.856 7.99102 9.16 7.77502 9.48 7.47102C10.456 6.99102 11.32 6.65502 12.072 6.46302C12.84 6.25502 13.48 6.15102 13.992 6.15102C14.616 6.18302 15.192 6.40702 15.72 6.82302C16.264 7.23902 16.576 7.71902 16.656 8.26302C16.688 8.42302 16.704 8.55102 16.704 8.64702C16.704 9.23902 16.464 9.90302 15.984 10.639C15.504 11.375 14.992 11.895 14.448 12.199C14.208 12.311 13.976 12.367 13.752 12.367C13.48 12.367 13.256 12.295 13.08 12.151C12.92 12.007 12.848 11.823 12.864 11.599C12.864 11.455 12.912 11.295 13.008 11.119C13.12 10.927 13.36 10.623 13.728 10.207C14.272 9.40702 14.544 8.83102 14.544 8.47902C14.544 8.23902 14.4 8.09502 14.112 8.04702C13.936 7.99902 13.456 8.07102 12.672 8.26302C11.904 8.43902 11.52 8.56702 11.52 8.64702C11.52 8.66302 11.512 8.69502 11.496 8.74302C11.496 8.77502 11.472 8.78302 11.424 8.76702C11.36 8.75102 10.904 9.01502 10.056 9.55902C9.224 10.103 8.792 10.415 8.76 10.495C8.744 10.575 8.68 10.663 8.568 10.759C8.472 10.839 8.352 10.911 8.208 10.975C7.92 11.151 7.656 11.391 7.416 11.695C7.192 11.999 6.896 12.479 6.528 13.135C6.336 13.407 6.176 13.703 6.048 14.023C5.936 14.343 5.88 14.631 5.88 14.887C5.88 15.063 5.904 15.215 5.952 15.343C6.016 15.583 6.184 15.807 6.456 16.015C6.744 16.207 7.288 16.543 8.088 17.023C8.904 17.487 9.64 17.983 10.296 18.511C10.952 19.023 11.352 19.431 11.496 19.735C11.752 20.103 11.88 20.583 11.88 21.175C11.88 21.639 11.816 22.079 11.688 22.495C11.544 22.799 11.36 23.079 11.136 23.335C10.912 23.607 10.712 23.735 10.536 23.719C10.376 23.767 10.24 23.823 10.128 23.887C10.016 23.967 9.92 24.023 9.84 24.055C9.648 24.167 9.152 24.279 8.352 24.391C7.568 24.519 6.912 24.575 6.384 24.559L5.424 24.271ZM19.4781 22.951C19.3341 22.807 19.2141 22.623 19.1181 22.399C19.0381 22.159 18.9341 21.799 18.8061 21.319C18.7741 21.223 18.7581 21.087 18.7581 20.911C18.7581 20.719 18.7581 20.583 18.7581 20.503C18.6941 20.647 18.6141 20.807 18.5181 20.983C18.4221 21.143 18.3261 21.255 18.2301 21.319C17.8621 21.687 17.4941 21.959 17.1261 22.135C16.6141 22.455 16.1741 22.615 15.8061 22.615C15.3581 22.615 14.9741 22.407 14.6541 21.991C14.1421 21.575 13.8861 21.079 13.8861 20.503C13.8861 20.423 13.9021 20.271 13.9341 20.047C13.9661 19.455 14.0461 18.887 14.1741 18.343C14.3181 17.799 14.5821 17.103 14.9661 16.255L15.6861 14.815L16.0701 14.071C16.1501 14.039 16.2781 14.023 16.4541 14.023C16.7101 14.023 16.9501 14.071 17.1741 14.167C17.3981 14.263 17.5181 14.391 17.5341 14.551C17.5821 14.615 17.6061 14.735 17.6061 14.911C17.6061 15.423 17.3901 16.103 16.9581 16.951L16.7661 17.407C16.4781 18.095 16.2701 18.631 16.1421 19.015C16.0141 19.399 15.9501 19.719 15.9501 19.975C15.9501 20.231 16.0461 20.399 16.2381 20.479C16.3181 20.527 16.4141 20.551 16.5261 20.551C16.8461 20.551 17.2301 20.303 17.6781 19.807C18.1421 19.311 18.6141 18.479 19.0941 17.311C19.3181 16.767 19.4541 16.207 19.5021 15.631C19.4701 15.455 19.5181 15.263 19.6461 15.055C19.7741 14.847 19.9421 14.679 20.1501 14.551C20.2141 14.455 20.3021 14.383 20.4141 14.335C20.5261 14.271 20.5981 14.271 20.6301 14.335L21.0141 14.311C21.0621 14.295 21.1341 14.367 21.2301 14.527C21.3421 14.687 21.4221 14.783 21.4701 14.815C21.6301 14.943 21.7101 15.199 21.7101 15.583C21.7101 16.111 21.5181 16.839 21.1341 17.767C20.8301 18.407 20.6221 18.903 20.5101 19.255C20.4141 19.591 20.3581 19.919 20.3421 20.239C20.3421 20.575 20.3661 20.839 20.4141 21.031C20.4781 21.207 20.6221 21.391 20.8461 21.583C21.1021 21.759 21.2061 22.175 21.1581 22.831C21.1261 22.943 21.0381 23.031 20.8941 23.095C20.7501 23.159 20.5741 23.191 20.3661 23.191C20.0141 23.191 19.7181 23.111 19.4781 22.951ZM26.6089 13.015C26.5609 13.063 26.5129 13.087 26.4649 13.087C26.4009 13.087 26.2969 13.039 26.1529 12.943C25.9929 12.927 25.7769 12.791 25.5049 12.535C25.2489 12.279 25.1209 12.111 25.1209 12.031C25.1049 11.839 25.1209 11.567 25.1689 11.215C25.2169 10.847 25.3049 10.519 25.4329 10.231C25.5769 9.94302 25.7609 9.79102 25.9849 9.77502C26.0969 9.79102 26.2489 9.83102 26.4409 9.89502C26.6329 9.94302 26.8489 10.015 27.0889 10.111C27.3929 10.719 27.5449 11.239 27.5449 11.671C27.5449 12.311 27.2329 12.759 26.6089 13.015ZM24.4009 22.975C24.0169 22.975 23.6809 22.775 23.3929 22.375C23.1209 21.975 22.9529 21.479 22.8889 20.887C22.9529 20.295 23.0009 19.863 23.0329 19.591C23.2089 18.807 23.4249 17.887 23.6809 16.831C23.9529 15.759 24.1129 15.167 24.1609 15.055C24.2409 14.911 24.3689 14.839 24.5449 14.839C24.7209 14.839 24.9129 14.911 25.1209 15.055C25.3449 15.183 25.5289 15.367 25.6729 15.607C25.8009 15.783 25.8649 15.983 25.8649 16.207C25.8649 16.543 25.7049 17.247 25.3849 18.319C25.1609 19.119 25.0169 19.687 24.9529 20.023C24.8889 20.359 24.8649 20.719 24.8809 21.103C24.8169 21.823 24.7529 22.319 24.6889 22.591C24.6249 22.863 24.5289 22.991 24.4009 22.975ZM29.3038 21.727C29.1278 21.599 28.8878 21.055 28.5838 20.095C28.2798 19.135 28.0638 18.239 27.9358 17.407C27.8718 17.071 27.7438 16.615 27.5518 16.039C27.5198 15.911 27.5038 15.807 27.5038 15.727C27.5038 15.487 27.5678 15.247 27.6958 15.007C27.8238 14.751 27.9678 14.575 28.1278 14.479C28.1918 14.431 28.3278 14.399 28.5358 14.383C28.7598 14.351 28.9118 14.343 28.9918 14.359C29.3438 14.487 29.6638 15.463 29.9518 17.287C30.0158 17.783 30.0638 18.143 30.0958 18.367C30.1438 18.591 30.1678 18.743 30.1678 18.823C30.1998 18.919 30.2318 19.031 30.2638 19.159C30.2958 19.287 30.3278 19.375 30.3598 19.423C30.3918 19.471 30.4478 19.455 30.5278 19.375C30.7038 19.199 30.9678 18.879 31.3198 18.415C31.4958 18.191 31.7598 17.823 32.1118 17.311L32.8078 16.375C32.9998 16.119 33.2558 15.839 33.5758 15.535C33.8958 15.231 34.1438 15.055 34.3198 15.007C34.5438 14.975 34.7198 15.023 34.8478 15.151C34.9918 15.263 35.0638 15.423 35.0638 15.631C35.0638 15.935 34.9358 16.263 34.6798 16.615C34.5838 16.743 34.4798 16.919 34.3678 17.143C34.2718 17.351 34.2078 17.471 34.1758 17.503C33.9998 17.855 33.6718 18.351 33.1918 18.991C32.7278 19.631 32.4158 20.031 32.2558 20.191C32.2238 20.223 32.0878 20.335 31.8478 20.527C31.6238 20.719 31.4158 20.951 31.2238 21.223C30.7278 21.703 30.2638 21.943 29.8318 21.943C29.6238 21.943 29.4478 21.871 29.3038 21.727ZM36.9611 22.783C36.4331 22.575 36.0411 22.255 35.7851 21.823C35.5451 21.375 35.4251 20.799 35.4251 20.095C35.4251 19.935 35.4411 19.647 35.4731 19.231C35.4891 19.103 35.4971 18.951 35.4971 18.775C35.4971 18.503 35.4651 18.303 35.4011 18.175C35.3371 18.031 35.2251 17.887 35.0651 17.743C35.0171 17.695 34.9051 17.591 34.7291 17.431C34.5531 17.271 34.4731 17.151 34.4891 17.071V16.999C34.4891 16.887 34.5131 16.767 34.5611 16.639C34.6251 16.495 34.6811 16.407 34.7291 16.375C34.7771 16.359 34.8731 16.311 35.0171 16.231C35.1611 16.151 35.2731 16.127 35.3531 16.159C35.4171 16.159 35.5131 16.199 35.6411 16.279C35.7851 16.359 35.8571 16.431 35.8571 16.495C35.9531 16.687 36.2011 16.375 36.6011 15.559C36.8251 15.223 37.1291 14.895 37.5131 14.575C37.8971 14.239 38.2491 13.983 38.5691 13.807C38.6811 13.759 38.9291 13.695 39.3131 13.615C39.7131 13.519 40.0251 13.471 40.2491 13.471C40.5051 13.471 40.8011 13.575 41.1371 13.783C41.4891 13.991 41.7771 14.215 42.0011 14.455C42.3371 14.695 42.5051 15.151 42.5051 15.823C42.5051 16.223 42.4411 16.567 42.3131 16.855C42.2491 17.095 41.9291 17.463 41.3531 17.959C40.7931 18.439 40.3371 18.751 39.9851 18.895C39.6331 18.975 39.2411 19.015 38.8091 19.015C38.3771 19.015 38.0811 18.975 37.9211 18.895C37.8091 18.831 37.7131 18.863 37.6331 18.991C37.5691 19.103 37.5131 19.367 37.4651 19.783L37.4411 20.023C37.4411 20.199 37.4811 20.367 37.5611 20.527C37.6731 20.719 37.7771 20.855 37.8731 20.935C37.9691 21.015 38.1131 21.055 38.3051 21.055L38.5211 21.031C38.6971 21.015 38.8811 20.927 39.0731 20.767C39.2811 20.607 39.5211 20.391 39.7931 20.119C40.0811 19.847 40.2491 19.687 40.2971 19.639C40.3771 19.479 40.5931 19.399 40.9451 19.399C41.0891 19.399 41.2731 19.423 41.4971 19.471C41.6571 19.599 41.7371 19.759 41.7371 19.951C41.7371 20.223 41.6091 20.591 41.3531 21.055C41.2731 21.215 41.0251 21.487 40.6091 21.871C40.2091 22.255 39.8891 22.519 39.6491 22.663C39.2171 22.903 38.7371 23.023 38.2091 23.023C37.8091 23.023 37.3931 22.943 36.9611 22.783ZM38.7371 17.383C39.1211 17.287 39.4171 17.175 39.6251 17.047C39.8491 16.903 40.1051 16.631 40.3931 16.231C40.5211 15.847 40.5451 15.615 40.4651 15.535C40.3691 15.439 40.2571 15.391 40.1291 15.391C39.9691 15.391 39.7771 15.479 39.5531 15.655C39.3931 15.703 39.1691 15.855 38.8811 16.111C38.6091 16.351 38.3771 16.591 38.1851 16.831C37.9931 17.055 37.9371 17.191 38.0171 17.239C37.9851 17.287 38.0651 17.327 38.2571 17.359C38.4491 17.375 38.6091 17.383 38.7371 17.383ZM44.0408 22.591C43.4008 22.143 43.0568 21.511 43.0088 20.695C42.9448 20.295 43.1928 19.735 43.7528 19.015C44.3128 18.295 45.0248 17.615 45.8888 16.975L47.3047 16.087C47.4808 15.991 47.6088 15.919 47.6888 15.871C47.7848 15.807 47.8328 15.759 47.8328 15.727C47.8328 15.695 47.8088 15.647 47.7608 15.583C47.7128 15.535 47.5208 15.495 47.1848 15.463C47.1048 15.463 46.9368 15.447 46.6808 15.415C46.5368 15.431 46.3528 15.439 46.1288 15.439C45.9208 15.439 45.5528 15.495 45.0248 15.607C44.6888 15.623 44.4408 15.623 44.2808 15.607C44.1368 15.575 44.0168 15.503 43.9208 15.391C43.8248 15.231 43.7528 15.055 43.7048 14.863C43.6568 14.655 43.6728 14.527 43.7528 14.479C43.7848 14.271 43.9288 14.087 44.1848 13.927C44.4408 13.751 44.8408 13.631 45.3848 13.567C45.4488 13.583 45.6248 13.591 45.9128 13.591C46.0408 13.591 46.2488 13.599 46.5368 13.615C46.8408 13.631 47.1288 13.655 47.4008 13.687C48.1368 13.767 48.6728 13.847 49.0088 13.927C49.3448 13.991 49.5928 14.079 49.7528 14.191C49.9128 14.303 50.0248 14.463 50.0888 14.671C50.1528 14.863 50.1848 15.023 50.1848 15.151C50.1848 15.919 49.4968 16.735 48.1208 17.599C47.4968 18.031 47.0328 18.383 46.7288 18.655C46.4408 18.911 46.1208 19.239 45.7688 19.639L45.2888 20.191C45.0808 20.399 44.9768 20.535 44.9768 20.599C44.9768 20.663 45.0488 20.719 45.1928 20.767C45.2568 20.847 45.4088 20.887 45.6488 20.887C45.8088 20.887 45.9288 20.879 46.0088 20.863H46.4888C46.6808 20.863 46.7928 20.871 46.8248 20.887C46.9208 20.919 46.9928 20.935 47.0408 20.935C47.1688 20.935 47.3368 20.903 47.5448 20.839C47.7528 20.775 47.9128 20.727 48.0247 20.695C48.8728 20.631 49.3848 20.567 49.5608 20.503C49.7688 20.439 49.9848 20.415 50.2088 20.431C50.4488 20.431 50.5848 20.431 50.6168 20.431C50.7288 20.543 50.7848 20.719 50.7848 20.959C50.7848 21.199 50.7208 21.423 50.5928 21.631C50.4808 21.823 50.2968 21.943 50.0408 21.991C49.6568 22.135 49.3528 22.239 49.1288 22.303C48.9208 22.367 48.7608 22.391 48.6488 22.375C48.1208 22.519 47.1688 22.591 45.7928 22.591H44.0408ZM52.6191 18.871C52.2991 18.871 52.0191 18.831 51.7791 18.751C51.3791 18.751 51.0911 18.591 50.9151 18.271C50.8351 18.175 50.7951 18.071 50.7951 17.959C50.7951 17.687 51.2431 17.503 52.1391 17.407C53.1471 17.183 54.2671 17.071 55.4991 17.071C56.2671 17.071 56.8271 17.239 57.1791 17.575C57.3231 17.719 57.3951 17.887 57.3951 18.079C57.3951 18.255 57.3151 18.399 57.1551 18.511C57.0111 18.623 56.8271 18.663 56.6031 18.631L54.9231 18.751C54.8431 18.751 54.5631 18.775 54.0831 18.823C53.6031 18.855 53.1151 18.871 52.6191 18.871ZM66.9752 22.423C65.9672 22.391 65.4632 21.823 65.4632 20.719C65.4632 20.415 65.4872 20.119 65.5352 19.831C65.5672 19.479 65.5832 19.231 65.5832 19.087V18.967V18.703C65.5352 18.383 65.4312 18.223 65.2712 18.223C64.9832 18.223 64.4472 18.503 63.6632 19.063C62.8952 19.607 62.0872 20.263 61.2392 21.031C60.9832 21.303 60.7672 21.559 60.5912 21.799C60.4312 22.007 60.3112 22.135 60.2312 22.183C60.1512 22.231 60.0232 22.255 59.8472 22.255C59.6232 22.223 59.3672 22.055 59.0792 21.751C58.7912 21.447 58.5992 21.175 58.5032 20.935C58.5032 20.487 58.5832 20.063 58.7432 19.663C58.9032 19.247 59.1432 18.727 59.4632 18.103C59.6072 17.623 59.7912 17.143 60.0152 16.663C60.2552 16.103 60.4232 15.679 60.5192 15.391C60.6312 15.087 60.7032 14.775 60.7352 14.455C60.7352 14.439 60.7272 14.431 60.7112 14.431C60.7112 14.367 60.7352 14.311 60.7832 14.263C60.8312 14.215 60.8872 14.191 60.9512 14.191C60.9832 14.143 61.0792 14.119 61.2392 14.119C61.6552 14.119 62.0152 14.231 62.3192 14.455C62.6232 14.679 62.7752 15.023 62.7752 15.487C62.7752 15.727 62.7272 15.959 62.6312 16.183C62.5512 16.391 62.3912 16.743 62.1512 17.239L61.8872 17.767C61.8392 17.863 61.7672 18.007 61.6712 18.199C61.5752 18.375 61.5272 18.487 61.5272 18.535C61.9272 18.263 62.3992 17.903 62.9432 17.455C63.7432 16.815 64.3992 16.319 64.9112 15.967C65.4232 15.615 65.7992 15.439 66.0392 15.439C66.2472 15.439 66.5352 15.559 66.9032 15.799C67.2872 16.023 67.5112 16.231 67.5752 16.423C67.5752 16.535 67.5592 16.703 67.5272 16.927C67.5112 17.151 67.4952 17.351 67.4792 17.527L67.5032 18.271C67.5192 18.399 67.5272 18.591 67.5272 18.847C67.5272 19.359 67.4952 19.719 67.4312 19.927C67.4472 19.943 67.4632 19.967 67.4792 19.999C67.4952 20.031 67.5032 20.055 67.5032 20.071L67.4792 20.119C67.4952 20.279 67.5832 20.535 67.7432 20.887C67.9032 21.239 67.9832 21.431 67.9832 21.463C67.9832 21.639 67.8632 21.839 67.6232 22.063C67.3992 22.271 67.1832 22.391 66.9752 22.423ZM71.4148 22.831C71.2228 22.831 71.0708 22.799 70.9588 22.735C70.8468 22.671 70.6868 22.551 70.4788 22.375C70.1588 22.039 69.9108 21.695 69.7348 21.343C69.5588 20.975 69.4948 20.655 69.5428 20.383C69.5908 20.271 69.6068 20.159 69.5908 20.047C69.5908 19.935 69.5908 19.863 69.5908 19.831C69.5268 19.767 69.4948 19.727 69.4948 19.711C69.4948 19.679 69.5108 19.655 69.5428 19.639C69.5748 19.607 69.5988 19.575 69.6148 19.543C69.7108 19.543 69.7428 19.455 69.7108 19.279C69.6788 19.151 69.7348 18.871 69.8788 18.439C70.0228 18.007 70.2068 17.607 70.4308 17.239C70.6068 16.951 70.8628 16.591 71.1988 16.159C71.5508 15.727 71.8628 15.399 72.1348 15.175C72.9348 14.487 73.6548 14.071 74.2948 13.927C74.6148 13.847 74.9268 13.807 75.2308 13.807C75.6948 13.807 76.0548 13.935 76.3108 14.191C76.6628 14.335 76.9188 14.543 77.0788 14.815C77.2388 15.087 77.3428 15.447 77.3908 15.895C77.4068 15.991 77.4148 16.151 77.4148 16.375C77.4148 17.559 76.9668 18.791 76.0708 20.071C75.7028 20.599 75.3348 21.023 74.9668 21.343C74.5988 21.663 74.1508 21.983 73.6228 22.303C73.3348 22.495 73.0308 22.623 72.7108 22.687C72.3908 22.751 71.9588 22.799 71.4148 22.831ZM73.8628 19.903C74.1668 19.631 74.3828 19.359 74.5108 19.087C74.6548 18.799 74.8548 18.303 75.1108 17.599C75.2068 17.455 75.2548 17.167 75.2548 16.735C75.2548 16.351 75.1988 16.135 75.0868 16.087C75.0068 16.023 74.9108 15.991 74.7988 15.991C74.6548 15.991 74.4228 16.103 74.1028 16.327C73.5428 16.807 73.0708 17.311 72.6868 17.839C72.3188 18.351 72.0628 18.943 71.9188 19.615C71.9028 19.679 71.8948 19.775 71.8948 19.903C71.8948 20.447 72.0868 20.719 72.4708 20.719C72.8388 20.719 73.3028 20.447 73.8628 19.903ZM84.3101 23.143C84.1981 23.207 84.0461 23.183 83.8541 23.071C83.6781 22.959 83.5021 22.791 83.3261 22.567C83.1981 22.359 83.1101 22.159 83.0621 21.967C83.0141 21.759 82.9901 21.463 82.9901 21.079L83.0141 20.527C83.0141 20.383 82.9901 20.311 82.9421 20.311C82.8941 20.311 82.7821 20.391 82.6061 20.551C82.4461 20.695 82.2381 20.887 81.9821 21.127C81.5021 21.591 81.0941 21.951 80.7581 22.207C80.4381 22.447 80.1741 22.559 79.9661 22.543C79.7901 22.543 79.5421 22.391 79.2221 22.087C78.9021 21.767 78.6861 21.463 78.5741 21.175C78.5261 20.983 78.5021 20.767 78.5021 20.527C78.5021 19.791 78.6621 18.895 78.9821 17.839C79.3021 16.783 79.6781 15.871 80.1101 15.103C80.5421 14.319 80.9021 13.943 81.1901 13.975C81.4461 14.007 81.6701 14.135 81.8621 14.359C82.0701 14.567 82.2381 14.823 82.3661 15.127C82.4141 15.223 82.4381 15.303 82.4381 15.367C82.4381 15.479 82.3741 15.591 82.2461 15.703C82.0061 16.023 81.7021 16.551 81.3341 17.287C80.9661 18.007 80.6701 18.671 80.4461 19.279C80.2221 19.871 80.1661 20.167 80.2781 20.167C80.5021 20.167 80.7021 20.111 80.8781 19.999C81.0701 19.887 81.3181 19.687 81.6221 19.399C82.1981 18.823 82.7581 18.087 83.3021 17.191C83.9741 16.119 84.3421 15.495 84.4061 15.319L84.6701 14.839C84.8301 14.519 84.9501 14.311 85.0301 14.215C85.1101 14.103 85.2061 14.031 85.3181 13.999H85.8701C85.9661 14.015 86.0781 14.087 86.2061 14.215C86.3501 14.279 86.4861 14.367 86.6141 14.479C86.7421 14.591 86.8061 14.687 86.8061 14.767L86.4221 15.655L86.2061 16.159C85.7741 17.119 85.4461 17.887 85.2221 18.463C84.9981 19.023 84.8301 19.607 84.7181 20.215C84.7021 20.295 84.6941 20.431 84.6941 20.623C84.6941 21.103 84.7421 21.439 84.8381 21.631C84.9821 21.919 85.1261 22.127 85.2701 22.255C85.3981 22.351 85.3981 22.471 85.2701 22.615C85.1421 22.743 84.9581 22.863 84.7181 22.975C84.4941 23.087 84.3581 23.143 84.3101 23.143ZM89.6169 23.143C89.1209 23.143 88.6569 23.031 88.2249 22.807C87.7929 22.583 87.4489 22.303 87.1929 21.967C86.9369 21.615 86.8089 21.271 86.8089 20.935C86.8089 20.663 86.9209 20.527 87.1449 20.527C87.2889 20.559 87.4569 20.647 87.6489 20.791C87.8889 20.935 88.0889 21.047 88.2489 21.127C88.4249 21.207 88.6009 21.247 88.7769 21.247C89.0489 21.247 89.2809 21.207 89.4729 21.127C89.6809 21.031 89.8009 20.895 89.8329 20.719C89.8329 20.655 89.8009 20.519 89.7369 20.311C89.6729 20.087 89.5929 19.887 89.4969 19.711C89.1449 19.183 88.9049 18.671 88.7769 18.175C88.6649 17.663 88.5929 17.071 88.5609 16.399C88.5609 16.031 88.8249 15.591 89.3529 15.079C89.8969 14.567 90.5209 14.111 91.2249 13.711C91.9449 13.311 92.5289 13.087 92.9769 13.039C93.8569 13.039 94.3849 13.111 94.5609 13.255C94.7849 13.431 94.9929 13.719 95.1849 14.119C95.3769 14.519 95.4729 14.855 95.4729 15.127C95.4729 15.239 95.4169 15.383 95.3049 15.559C95.2089 15.719 95.1449 15.823 95.1129 15.871L94.8969 16.207L94.7289 16.567C94.6969 16.647 94.6409 16.767 94.5609 16.927C94.4969 17.087 94.4329 17.183 94.3689 17.215C94.3209 17.247 94.2409 17.255 94.1289 17.239C93.8569 17.239 93.6089 17.119 93.3849 16.879C93.1609 16.639 93.0489 16.375 93.0489 16.087C93.0489 15.879 93.1209 15.671 93.2649 15.463C93.4089 15.255 93.4809 15.135 93.4809 15.103C93.4809 15.039 93.4089 15.007 93.2649 15.007C93.0569 15.007 92.7369 15.111 92.3049 15.319C91.8729 15.527 91.4889 15.807 91.1529 16.159C90.8169 16.495 90.6489 16.871 90.6489 17.287C90.6489 17.511 90.6889 17.775 90.7689 18.079C90.8649 18.367 90.9689 18.607 91.0809 18.799C91.2089 18.927 91.3929 19.311 91.6329 19.951C91.8889 20.575 92.0169 21.071 92.0169 21.439C92.0169 21.999 91.8009 22.423 91.3689 22.711C90.9529 22.999 90.3689 23.143 89.6169 23.143Z" fill="white"/>
<path d="M77.8159 31.2666C78.3645 30.968 77.8085 30.8034 77.8159 31.2666C78.3645 30.968 78.3645 30.968 77.8159 31.2666C78.3719 31.4312 78.3719 31.4312 77.8159 31.2666C78.9278 31.5958 78.9278 31.5958 78.3645 30.968C78.3645 30.968 78.3645 30.968 78.9205 31.1326C79.4765 31.2972 80.0324 31.4618 80.5811 31.1632L81.1371 31.3278C81.1297 30.8646 81.6857 31.0292 81.6857 31.0292C81.6857 31.0292 82.2417 31.1938 82.7977 31.3584C83.9023 31.2244 84.4583 31.389 84.4583 31.389L85.0142 31.5536C85.0142 31.5536 85.0142 31.5536 85.0069 31.0904L85.0142 31.5536C85.0216 32.0168 85.5776 32.1814 85.5702 31.7182L86.6675 31.121L87.2235 31.2856C87.2235 31.2856 87.7868 31.9134 87.7795 31.4502C87.7795 31.4502 87.7795 31.4502 88.3354 31.6148C88.8914 31.7794 88.8914 31.7794 88.8841 31.3162C88.8767 30.853 88.3208 30.6884 88.8841 31.3162C89.4474 31.944 90.0034 32.1086 90.552 31.81C90.552 31.81 90.552 31.81 89.9887 31.1822L89.9814 30.719C89.9814 30.719 89.9814 30.719 89.9887 31.1822C89.996 31.6454 90.0034 32.1086 90.552 31.81C90.552 31.81 91.108 31.9746 91.6566 31.676C92.2126 31.8406 92.7686 32.0052 92.7612 31.542L93.3172 31.7066L94.4292 32.0358C94.9852 32.2004 94.9852 32.2004 94.9852 32.2004C94.9852 32.2004 94.9852 32.2004 95.5411 32.365C95.5411 32.365 96.6531 32.6942 97.2017 32.3956C97.7577 32.5602 98.8623 32.4262 99.4183 32.5908C99.9743 32.7554 100.53 32.92 100.523 32.4568C100.523 32.4568 101.079 32.6214 101.635 32.786C102.747 33.1152 103.859 33.4443 103.851 32.9812C103.851 32.9812 103.851 32.9812 103.295 32.8166C102.74 32.652 103.295 32.8166 103.288 32.3534C102.725 31.7256 102.725 31.7256 103.281 31.8902C102.732 32.1888 105.512 33.0118 106.061 32.7132L106.053 32.25L105.497 32.0854C104.941 31.9208 104.385 31.7562 104.385 31.7562C104.385 31.7562 103.829 31.5916 103.273 31.427C102.717 31.2624 102.162 31.0978 102.169 31.561C102.725 31.7256 102.725 31.7256 102.169 31.561C102.169 31.561 101.613 31.3964 101.606 30.9332L101.05 30.7686C101.05 30.7686 100.494 30.604 99.9449 30.9026C99.389 30.738 98.833 30.5734 98.2843 30.872L97.7284 30.7074C97.1724 30.5428 96.6164 30.3782 97.1724 30.5428L96.6164 30.3782C96.6164 30.3782 96.6164 30.3782 96.0604 30.2136C95.5044 30.049 95.5044 30.049 94.9558 30.3476C94.9558 30.3476 94.9485 29.8844 94.3998 30.183L93.8438 30.0184C93.8512 30.4816 93.2952 30.317 93.2879 29.8538C93.2879 29.8538 93.2879 29.8538 92.7319 29.6892L92.1759 29.5247C91.6199 29.3601 91.6199 29.3601 91.064 29.1955L90.508 29.0309C89.952 28.8663 89.9593 29.3295 89.9593 29.3295L89.9667 29.7926C89.9593 29.3295 88.8474 29.0003 88.3061 29.762C88.3134 30.2252 88.3134 30.2252 87.7501 29.5974L87.7428 29.1343C87.7428 29.1343 87.7354 28.6711 87.1794 28.5065C86.6235 28.3419 86.6308 28.8051 87.1868 28.9697C86.6308 28.8051 86.6308 28.8051 86.6308 28.8051C86.6308 28.8051 86.0748 28.6405 86.0822 29.1037L85.5262 28.9391C84.9702 28.7745 84.9702 28.7745 84.9702 28.7745C84.4142 28.6099 84.4142 28.6099 84.4142 28.6099L83.8656 28.9085C83.8656 28.9085 83.8656 28.9085 83.3096 28.7439C82.7536 28.5793 82.7536 28.5793 82.7536 28.5793C82.7536 28.5793 82.7536 28.5793 82.1976 28.4147C82.1976 28.4147 81.093 28.5487 80.5371 28.3841C80.5371 28.3841 78.8765 28.3535 76.6599 28.1583C66.1403 27.8101 53.4115 27.7299 40.6901 28.1129C36.8422 29.7398 34.6257 29.5446 33.5211 29.6786C31.8605 29.648 27.9906 29.8854 27.998 30.3486C27.998 30.3486 27.998 30.3486 27.442 30.184C26.886 30.0194 22.4675 30.5554 21.9116 30.3908C21.9116 30.3908 21.3629 30.6894 20.8069 30.5248C20.2583 30.8234 17.4931 30.9268 14.7352 31.4933C9.7681 32.3279 9.21946 32.6265 9.2268 33.0897C9.79746 34.1807 10.3461 33.8821 12.5553 33.6141C13.6599 33.4801 15.8692 33.2121 17.5224 32.7795C19.1757 32.3469 20.8363 32.3775 20.8363 32.3775C20.8363 32.3775 20.8363 32.3775 21.3923 32.5421C21.3923 32.5421 21.9483 32.7067 22.4969 32.4081C23.0529 32.5727 23.6015 32.2741 24.1575 32.4387C25.8181 32.4693 26.9227 32.3353 28.0273 32.2013C32.4458 31.6654 44.0626 31.4164 52.9143 31.2708C60.1053 31.0946 63.9825 31.3204 71.1735 31.1442C75.5993 31.0714 77.8159 31.2666 77.8159 31.2666ZM92.2053 31.3774C92.7612 31.542 92.7612 31.542 92.2053 31.3774C92.7612 31.542 92.7612 31.542 93.3172 31.7066C93.3172 31.7066 93.3172 31.7066 93.3246 32.1698C92.7612 31.542 92.2053 31.3774 92.2053 31.3774ZM89.4254 30.5544C89.9887 31.1822 89.9887 31.1822 89.9887 31.1822C89.9887 31.1822 89.4327 31.0176 89.4254 30.5544ZM84.9996 30.6272C84.4509 30.9258 84.4509 30.9258 84.4509 30.9258C84.4509 30.9258 84.4436 30.4626 84.9996 30.6272ZM82.227 30.2674C81.6784 30.566 81.6784 30.566 82.227 30.2674C81.671 30.1028 81.671 30.1028 82.227 30.2674ZM80.5664 30.2368C81.1297 30.8646 81.1297 30.8646 80.5664 30.2368C80.5738 30.7 80.5738 30.7 80.5664 30.2368ZM78.9058 30.2062C79.4618 30.3708 79.4618 30.3708 78.9058 30.2062V30.2062ZM107.78 36.4493L106.683 37.0464C106.683 37.0464 106.683 37.0464 106.127 36.8818C106.127 36.8818 105.022 37.0158 103.91 36.6866C103.354 36.5221 102.25 36.656 101.694 36.4915C100.582 36.1623 99.477 36.2963 98.3724 36.4303C97.8164 36.2657 96.7118 36.3997 96.7118 36.3997C96.7118 36.3997 96.1632 36.6982 96.1558 36.2351C96.1558 36.2351 96.1558 36.2351 95.5999 36.0705C95.5999 36.0705 95.0512 36.3691 93.9393 36.0399C93.3833 35.8753 92.2787 36.0093 92.2787 36.0093C92.2787 36.0093 91.174 36.1433 90.0621 35.8141C87.2895 35.4543 84.5243 35.5577 82.3077 35.3625C81.2031 35.4965 80.0912 35.1673 80.0912 35.1673L79.5352 35.0027C78.9865 35.3013 74.5534 34.9109 73.9974 34.7463L73.4414 34.5817C72.8928 34.8803 71.2322 34.8497 70.6762 34.6851C70.1276 34.9837 70.1202 34.5205 70.1202 34.5205C70.1129 34.0573 73.9827 33.8199 74.5461 34.4477C74.5461 34.4477 81.7371 34.2715 82.2931 34.4361C82.2931 34.4361 82.2931 34.4361 82.849 34.6007C82.849 34.6007 87.8308 34.6925 91.152 34.7537C91.708 34.9183 92.8126 34.7843 93.9246 35.1135C94.4806 35.2781 95.5852 35.1441 95.5852 35.1441L96.1412 35.3087C96.1412 35.3087 96.1412 35.3087 96.6971 35.4733C96.6971 35.4733 96.6971 35.4733 97.2531 35.6379L97.8091 35.8025C97.8091 35.8025 98.3651 35.9671 98.9137 35.6685C98.899 34.7421 100.011 35.0713 100.567 35.2359C102.228 35.2665 103.888 35.2971 103.896 35.7603L104.451 35.9249C104.451 35.9249 105.007 36.0895 105 35.6263C105.556 35.7909 106.112 35.9555 106.668 36.1201C107.217 35.8215 107.217 35.8215 107.78 36.4493Z" fill="white"/>
</svg>
