<svg width="20" height="20" viewBox="0 0 20 20" fill="none" xmlns="http://www.w3.org/2000/svg">
<path d="M3.33203 18.334C3.33203 16.5659 4.03441 14.8702 5.28465 13.6199C6.53489 12.3697 8.23059 11.6673 9.9987 11.6673C11.7668 11.6673 13.4625 12.3697 14.7127 13.6199C15.963 14.8702 16.6654 16.5659 16.6654 18.334H3.33203ZM10.832 13.4032V16.6673H14.7145C14.4166 15.8268 13.8997 15.0811 13.2172 14.5073C12.5346 13.9334 11.7112 13.5523 10.832 13.4032ZM9.16536 16.6673V13.4032C8.28619 13.5523 7.46279 13.9334 6.78024 14.5073C6.09769 15.0811 5.58076 15.8268 5.28286 16.6673H9.16536ZM9.9987 10.834C7.2362 10.834 4.9987 8.59648 4.9987 5.83398C4.9987 3.07148 7.2362 0.833984 9.9987 0.833984C12.7612 0.833984 14.9987 3.07148 14.9987 5.83398C14.9987 8.59648 12.7612 10.834 9.9987 10.834ZM9.9987 9.16732C11.8404 9.16732 13.332 7.67565 13.332 5.83398C13.332 3.99232 11.8404 2.50065 9.9987 2.50065C8.15703 2.50065 6.66536 3.99232 6.66536 5.83398C6.66536 7.67565 8.15703 9.16732 9.9987 9.16732Z" fill="#111111"/>
</svg>
