<svg width="12" height="18" viewBox="0 0 12 18" fill="none" xmlns="http://www.w3.org/2000/svg">
<path d="M1.83268 2.33317V15.6665H10.166V2.33317H1.83268ZM0.999349 0.666504H10.9994C11.2204 0.666504 11.4323 0.754301 11.5886 0.910582C11.7449 1.06686 11.8327 1.27882 11.8327 1.49984V16.4998C11.8327 16.7209 11.7449 16.9328 11.5886 17.0891C11.4323 17.2454 11.2204 17.3332 10.9994 17.3332H0.999349C0.778335 17.3332 0.566374 17.2454 0.410094 17.0891C0.253813 16.9328 0.166016 16.7209 0.166016 16.4998V1.49984C0.166016 1.27882 0.253813 1.06686 0.410094 0.910582C0.566374 0.754301 0.778335 0.666504 0.999349 0.666504ZM5.99935 13.1665C6.22036 13.1665 6.43232 13.2543 6.58861 13.4106C6.74489 13.5669 6.83268 13.7788 6.83268 13.9998C6.83268 14.2209 6.74489 14.4328 6.58861 14.5891C6.43232 14.7454 6.22036 14.8332 5.99935 14.8332C5.77834 14.8332 5.56637 14.7454 5.41009 14.5891C5.25381 14.4328 5.16602 14.2209 5.16602 13.9998C5.16602 13.7788 5.25381 13.5669 5.41009 13.4106C5.56637 13.2543 5.77834 13.1665 5.99935 13.1665Z" fill="#111111"/>
</svg>
