<svg width="20" height="20" viewBox="0 0 20 20" fill="none" xmlns="http://www.w3.org/2000/svg">
<path d="M10 18.3332C5.39752 18.3332 1.66669 14.6023 1.66669 9.99984C1.66669 5.39734 5.39752 1.6665 10 1.6665C14.6025 1.6665 18.3334 5.39734 18.3334 9.99984C18.3334 14.6023 14.6025 18.3332 10 18.3332ZM10 16.6665C11.7681 16.6665 13.4638 15.9641 14.7141 14.7139C15.9643 13.4636 16.6667 11.7679 16.6667 9.99984C16.6667 8.23173 15.9643 6.53604 14.7141 5.28579C13.4638 4.03555 11.7681 3.33317 10 3.33317C8.23191 3.33317 6.53622 4.03555 5.28598 5.28579C4.03573 6.53604 3.33335 8.23173 3.33335 9.99984C3.33335 11.7679 4.03573 13.4636 5.28598 14.7139C6.53622 15.9641 8.23191 16.6665 10 16.6665ZM10.8334 9.99984H14.1667V11.6665H9.16669V5.83317H10.8334V9.99984Z" fill="#111111"/>
</svg>
