<svg width="226" height="11" viewBox="0 0 226 11" fill="none" xmlns="http://www.w3.org/2000/svg">
<path d="M161.297 4.21934C162.865 3.91696 161.734 3.73012 161.297 4.21934C162.865 3.91696 162.865 3.91696 161.297 4.21934C162.428 4.40618 162.428 4.40618 161.297 4.21934C163.56 4.59303 163.56 4.59303 162.865 3.91696C162.865 3.91696 162.865 3.91697 163.997 4.10381C165.128 4.29066 166.26 4.4775 167.829 4.17513L168.96 4.36197C169.398 3.87275 170.529 4.0596 170.529 4.0596C170.529 4.0596 171.661 4.24645 172.792 4.43329C175.492 4.31776 176.624 4.50461 176.624 4.50461L177.755 4.69145C177.755 4.69145 177.755 4.69145 178.193 4.20223L177.755 4.69145C177.318 5.18067 178.45 5.36752 178.887 4.8783L182.024 4.27355L183.156 4.4604C183.156 4.4604 183.85 5.13646 184.287 4.64724C184.287 4.64724 184.287 4.64724 185.419 4.83409C186.55 5.02094 186.55 5.02093 186.988 4.53171C187.425 4.04249 186.294 3.85565 186.988 4.53171C187.682 5.20778 188.813 5.39463 190.382 5.09225C190.382 5.09225 190.382 5.09225 189.688 4.41619L190.125 3.92697C190.125 3.92697 190.125 3.92697 189.688 4.41619C189.251 4.90541 188.813 5.39463 190.382 5.09225C190.382 5.09225 191.514 5.2791 193.083 4.97672C194.214 5.16357 195.346 5.35042 195.783 4.8612L196.914 5.04804L199.177 5.42173C200.309 5.60858 200.309 5.60858 200.309 5.60858C200.309 5.60858 200.309 5.60858 201.44 5.79542C201.44 5.79542 203.703 6.16912 205.272 5.86674C206.404 6.05359 209.104 5.93806 210.235 6.1249C211.367 6.31175 212.498 6.4986 212.936 6.00938C212.936 6.00938 214.067 6.19622 215.199 6.38307C217.462 6.75676 219.725 7.13045 220.162 6.64123C220.162 6.64123 220.162 6.64123 219.031 6.45439C217.899 6.26754 219.031 6.45439 219.468 5.96517C218.774 5.2891 218.774 5.2891 219.905 5.47594C218.336 5.77832 223.994 6.71255 225.563 6.41017L226 5.92095L224.868 5.73411C223.737 5.54726 222.606 5.36042 222.606 5.36042C222.606 5.36042 221.474 5.17357 220.343 4.98672C219.211 4.79988 218.08 4.61303 217.642 5.10225C218.774 5.2891 218.774 5.2891 217.642 5.10225C217.642 5.10225 216.511 4.91541 216.948 4.42619L215.817 4.23934C215.817 4.23934 214.685 4.0525 213.116 4.35487C211.985 4.16802 210.853 3.98118 209.284 4.28355L208.153 4.09671C207.021 3.90986 205.89 3.72302 207.021 3.90986L205.89 3.72302C205.89 3.72302 205.89 3.72302 204.758 3.53617C203.627 3.34932 203.627 3.34932 202.058 3.6517C202.058 3.6517 202.495 3.16248 200.927 3.46485L199.795 3.27801C199.358 3.76723 198.226 3.58038 198.664 3.09116C198.664 3.09116 198.664 3.09116 197.532 2.90432L196.401 2.71747C195.269 2.53062 195.269 2.53062 194.138 2.34378L193.006 2.15693C191.875 1.97009 191.437 2.45931 191.437 2.45931L191 2.94853C191.437 2.45931 189.174 2.08562 187.168 2.87721C186.731 3.36643 186.731 3.36643 186.037 2.69036L186.474 2.20114C186.474 2.20114 186.911 1.71192 185.78 1.52508C184.648 1.33823 184.211 1.82745 185.343 2.0143C184.211 1.82745 184.211 1.82745 184.211 1.82745C184.211 1.82745 183.08 1.64061 182.642 2.12983L181.511 1.94298C180.379 1.75613 180.379 1.75613 180.379 1.75613C179.248 1.56929 179.248 1.56929 179.248 1.56929L177.679 1.87166C177.679 1.87166 177.679 1.87166 176.547 1.68482C175.416 1.49797 175.416 1.49797 175.416 1.49797C175.416 1.49797 175.416 1.49797 174.284 1.31113C174.284 1.31113 171.584 1.42665 170.453 1.23981C170.453 1.23981 166.621 1.16849 161.658 0.910327C137.535 0.295577 108.012 -0.0881163 78.0521 0.0174104C67.5077 1.64481 62.5444 1.38665 59.8441 1.50218C56.0123 1.43086 46.7799 1.5906 46.3426 2.07982C46.3426 2.07982 46.3426 2.07982 45.2111 1.89297C44.0796 1.70613 33.2783 2.16824 32.1468 1.98139C32.1468 1.98139 30.578 2.28377 29.4465 2.09692C27.8777 2.3993 21.3456 2.44351 14.3762 2.97694C2.00613 3.74143 0.437319 4.0438 0 4.53302C0.256858 5.69831 1.82567 5.39593 7.22629 5.16488C9.9266 5.04935 15.3272 4.81829 19.5963 4.40039C23.8655 3.98249 27.6973 4.0538 27.6973 4.0538C27.6973 4.0538 27.6973 4.0538 28.8288 4.24065C28.8288 4.24065 29.9603 4.42749 31.5291 4.12512C32.6606 4.31197 34.2294 4.00959 35.3609 4.19644C39.1927 4.26776 41.893 4.15223 44.5933 4.0367C55.3945 3.57458 82.6545 3.58459 103.382 3.6388C120.278 3.62169 129.073 3.95117 145.969 3.93407C156.333 3.96118 161.297 4.21934 161.297 4.21934ZM194.651 4.67435C195.783 4.8612 195.783 4.8612 194.651 4.67435C195.783 4.8612 195.783 4.86119 196.914 5.04804C196.914 5.04804 196.914 5.04804 196.477 5.53726C195.783 4.8612 194.651 4.67435 194.651 4.67435ZM188.994 3.74012C189.688 4.41619 189.688 4.41619 189.688 4.41619C189.688 4.41619 188.557 4.22934 188.994 3.74012ZM178.63 3.71301C177.061 4.01539 177.061 4.01539 177.061 4.01539C177.061 4.01539 177.498 3.52617 178.63 3.71301ZM172.535 3.26801C170.966 3.57038 170.966 3.57038 172.535 3.26801C171.404 3.08116 171.404 3.08116 172.535 3.26801ZM168.703 3.19669C169.398 3.87275 169.398 3.87275 168.703 3.19669C168.266 3.68591 168.266 3.68591 168.703 3.19669ZM164.872 3.12537C166.003 3.31222 166.003 3.31222 164.872 3.12537V3.12537ZM225.896 10.3952L222.758 11C222.758 11 222.758 11 221.627 10.8132C221.627 10.8132 218.926 10.9287 216.663 10.555C215.532 10.3681 212.832 10.4837 211.7 10.2968C209.437 9.92314 206.737 10.0387 204.037 10.1542C202.905 9.96735 200.205 10.0829 200.205 10.0829C200.205 10.0829 198.636 10.3852 199.073 9.89603C199.073 9.89603 199.073 9.89603 197.942 9.70918C197.942 9.70918 196.373 10.0116 194.11 9.63787C192.979 9.45102 190.278 9.56655 190.278 9.56655C190.278 9.56655 187.578 9.68208 185.315 9.30839C179.22 8.86338 172.688 8.90759 167.725 8.64942C165.024 8.76495 162.761 8.39126 162.761 8.39126L161.63 8.20442C160.061 8.50679 150.135 7.99046 149.003 7.80362L147.872 7.61677C146.303 7.91915 142.471 7.84783 141.339 7.66098C139.771 7.96336 140.208 7.47414 140.208 7.47414C140.645 6.98492 149.878 6.82518 150.572 7.50124C150.572 7.50124 167.468 7.48414 168.599 7.67098C168.599 7.67098 168.599 7.67099 169.731 7.85783C169.731 7.85783 181.226 8.07178 188.89 8.21442C190.021 8.40126 192.722 8.28574 194.985 8.65943C196.116 8.84627 198.816 8.73074 198.816 8.73074L199.948 8.91759C199.948 8.91759 199.948 8.91759 201.079 9.10443C201.079 9.10443 201.079 9.10443 202.211 9.29128L203.342 9.47813C203.342 9.47813 204.474 9.66497 206.043 9.3626C206.917 8.38416 209.18 8.75785 210.312 8.9447C214.144 9.01601 217.975 9.08733 217.538 9.57655L218.67 9.7634C218.67 9.7634 219.801 9.95024 220.238 9.46102C221.37 9.64787 222.501 9.83471 223.633 10.0216C225.202 9.71919 225.202 9.71918 225.896 10.3952Z" fill="#007AFF"/>
</svg>
