<svg width="269" height="8" viewBox="0 0 269 8" fill="none" xmlns="http://www.w3.org/2000/svg">
<path d="M191.986 3.43894C193.853 3.24652 192.506 3.12762 191.986 3.43894C193.853 3.24652 193.853 3.24652 191.986 3.43894C193.333 3.55784 193.333 3.55784 191.986 3.43894C194.679 3.67674 194.679 3.67674 193.853 3.24652C193.853 3.24652 193.853 3.24652 195.2 3.36542C196.547 3.48432 197.893 3.60322 199.761 3.4108L201.108 3.52971C201.628 3.21839 202.975 3.33729 202.975 3.33729C202.975 3.33729 204.322 3.45619 205.668 3.57509C208.883 3.50157 210.229 3.62048 210.229 3.62048L211.576 3.73938C211.576 3.73938 211.576 3.73938 212.097 3.42806L211.576 3.73938C211.056 4.0507 212.402 4.1696 212.923 3.85828L216.657 3.47344L218.004 3.59234C218.004 3.59234 218.83 4.02256 219.351 3.71124C219.351 3.71124 219.351 3.71124 220.698 3.83014C222.045 3.94905 222.045 3.94905 222.565 3.63772C223.086 3.3264 221.739 3.2075 222.565 3.63772C223.391 4.06795 224.738 4.18685 226.605 3.99443C226.605 3.99443 226.605 3.99443 225.779 3.56421L226.3 3.25288C226.3 3.25288 226.3 3.25289 225.779 3.56421C225.259 3.87553 224.738 4.18685 226.605 3.99443C226.605 3.99443 227.952 4.11333 229.82 3.92091C231.166 4.03981 232.513 4.15872 233.034 3.84739L234.38 3.9663L237.074 4.2041C238.421 4.323 238.421 4.323 238.421 4.323C238.421 4.323 238.421 4.323 239.768 4.4419C239.768 4.4419 242.461 4.67971 244.328 4.48729C245.675 4.60619 248.889 4.53267 250.236 4.65157C251.583 4.77047 252.93 4.88938 253.45 4.57805C253.45 4.57805 254.797 4.69696 256.144 4.81586C258.837 5.05366 261.531 5.29147 262.051 4.98014C262.051 4.98014 262.051 4.98014 260.704 4.86124C259.358 4.74234 260.704 4.86124 261.225 4.54992C260.399 4.1197 260.399 4.1197 261.746 4.2386C259.878 4.43102 266.612 5.02553 268.479 4.83311L269 4.52179L267.653 4.40288C266.306 4.28398 264.96 4.16508 264.96 4.16508C264.96 4.16508 263.613 4.04618 262.266 3.92728C260.919 3.80837 259.573 3.68947 259.052 4.00079C260.399 4.1197 260.399 4.1197 259.052 4.00079C259.052 4.00079 257.705 3.88189 258.226 3.57057L256.879 3.45167C256.879 3.45167 255.532 3.33277 253.665 3.52519C252.318 3.40629 250.971 3.28738 249.104 3.4798L247.757 3.3609C246.41 3.242 245.064 3.1231 246.41 3.242L245.064 3.1231C245.064 3.1231 245.064 3.1231 243.717 3.0042C242.37 2.88529 242.37 2.88529 240.503 3.07771C240.503 3.07771 241.023 2.76639 239.156 2.95881L237.809 2.83991C237.289 3.15123 235.942 3.03233 236.462 2.72101C236.462 2.72101 236.462 2.72101 235.116 2.60211L233.769 2.4832C232.422 2.3643 232.422 2.3643 231.075 2.2454L229.729 2.1265C228.382 2.0076 227.861 2.31892 227.861 2.31892L227.341 2.63024C227.861 2.31892 225.168 2.08112 222.78 2.58486C222.259 2.89618 222.259 2.89618 221.433 2.46596L221.954 2.15463C221.954 2.15463 222.474 1.84331 221.127 1.72441C219.781 1.60551 219.26 1.91683 220.607 2.03573C219.26 1.91683 219.26 1.91683 219.26 1.91683C219.26 1.91683 217.913 1.79793 217.393 2.10925L216.046 1.99035C214.699 1.87145 214.699 1.87145 214.699 1.87145C213.352 1.75254 213.352 1.75254 213.352 1.75254L211.485 1.94496C211.485 1.94496 211.485 1.94496 210.138 1.82606C208.792 1.70716 208.792 1.70716 208.792 1.70716C208.792 1.70716 208.792 1.70716 207.445 1.58826C207.445 1.58826 204.231 1.66178 202.884 1.54287C202.884 1.54287 198.323 1.49749 192.415 1.33321C163.703 0.942001 128.563 0.697832 92.9027 0.764986C80.3521 1.8006 74.4445 1.63632 71.2304 1.70984C66.6695 1.66445 55.6805 1.7661 55.16 2.07743C55.16 2.07743 55.16 2.07743 53.8132 1.95852C52.4664 1.83962 39.6101 2.13369 38.2633 2.01479C38.2633 2.01479 36.396 2.20721 35.0492 2.08831C33.1819 2.28073 25.4069 2.30886 17.1115 2.64832C2.38783 3.13481 0.520525 3.32723 0 3.63856C0.305729 4.3801 2.17303 4.18768 8.6012 4.04065C11.8153 3.96713 18.2435 3.82009 23.3248 3.55415C28.4062 3.28821 32.9671 3.3336 32.9671 3.3336C32.9671 3.3336 32.9671 3.3336 34.3139 3.4525C34.3139 3.4525 35.6607 3.5714 37.528 3.37898C38.8747 3.49788 40.742 3.30546 42.0888 3.42437C46.6497 3.46975 49.8638 3.39623 53.0779 3.32271C65.9342 3.02864 98.3808 3.03501 123.052 3.06951C143.163 3.05862 153.632 3.26829 173.742 3.2574C186.078 3.27465 191.986 3.43894 191.986 3.43894ZM231.687 3.72849C233.034 3.84739 233.034 3.84739 231.687 3.72849C233.034 3.84739 233.034 3.84739 234.38 3.9663C234.38 3.9663 234.38 3.9663 233.86 4.27762C233.034 3.84739 231.687 3.72849 231.687 3.72849ZM224.953 3.13398C225.779 3.56421 225.779 3.56421 225.779 3.56421C225.779 3.56421 224.432 3.4453 224.953 3.13398ZM212.617 3.11673C210.75 3.30915 210.75 3.30915 210.75 3.30915C210.75 3.30915 211.27 2.99783 212.617 3.11673ZM205.363 2.83355C203.495 3.02597 203.495 3.02597 205.363 2.83355C204.016 2.71464 204.016 2.71464 205.363 2.83355ZM200.802 2.78816C201.628 3.21839 201.628 3.21839 200.802 2.78816C200.281 3.09948 200.281 3.09948 200.802 2.78816ZM196.241 2.74278C197.588 2.86168 197.588 2.86168 196.241 2.74278V2.74278ZM268.876 7.36906L265.142 7.75391C265.142 7.75391 265.142 7.75391 263.795 7.635C263.795 7.635 260.581 7.70852 257.887 7.47072C256.54 7.35182 253.326 7.42534 251.979 7.30643C249.286 7.06863 246.072 7.14215 242.858 7.21566C241.511 7.09676 238.297 7.17028 238.297 7.17028C238.297 7.17028 236.43 7.3627 236.95 7.05138C236.95 7.05138 236.95 7.05138 235.603 6.93248C235.603 6.93248 233.736 7.1249 231.042 6.88709C229.696 6.76819 226.482 6.84171 226.482 6.84171C226.482 6.84171 223.268 6.91523 220.574 6.67742C213.32 6.39424 205.545 6.42237 199.637 6.25809C196.423 6.3316 193.729 6.0938 193.729 6.0938L192.383 5.9749C190.515 6.16732 178.7 5.83875 177.353 5.71984L176.006 5.60094C174.139 5.79336 169.578 5.74798 168.231 5.62908C166.364 5.8215 166.885 5.51017 166.885 5.51017C167.405 5.19885 178.394 5.0972 179.22 5.52742C179.22 5.52742 199.331 5.51654 200.678 5.63544C200.678 5.63544 200.678 5.63544 202.025 5.75434C202.025 5.75434 215.707 5.89049 224.829 5.98126C226.176 6.10016 229.39 6.02665 232.083 6.26445C233.43 6.38335 236.644 6.30983 236.644 6.30983L237.991 6.42874C237.991 6.42874 237.991 6.42874 239.338 6.54764C239.338 6.54764 239.338 6.54764 240.685 6.66654L242.031 6.78544C242.031 6.78544 243.378 6.90434 245.246 6.71192C246.287 6.08928 248.98 6.32708 250.327 6.44598C254.888 6.49137 259.449 6.53675 258.928 6.84807L260.275 6.96698C260.275 6.96698 261.622 7.08588 262.142 6.77456C263.489 6.89346 264.836 7.01236 266.183 7.13126C268.05 6.93884 268.05 6.93884 268.876 7.36906Z" fill="#007AFF"/>
</svg>